<?xml version="1.0" encoding="utf-8"?>
<!-- Generator: Adobe Illustrator 21.0.2, SVG Export Plug-In . SVG Version: 6.00 Build 0)  -->
<svg version="1.1" id="Layer_1" xmlns="http://www.w3.org/2000/svg" xmlns:xlink="http://www.w3.org/1999/xlink" x="0px" y="0px"
	 viewBox="0 0 754.2 712.3" style="enable-background:new 0 0 754.2 712.3;" xml:space="preserve">
<style type="text/css">
	.st0{fill:none;}
	.st1{fill:#E73E4A;}
</style>
<path class="st0" d="M143.9,354.9c0,60.5,23.5,117.3,66.3,160.1s99.6,66.3,160.1,66.3s117.3-23.5,160.1-66.3s66.3-99.6,66.3-160.1
	s-23.5-117.3-66.3-160.1s-99.6-66.3-160.1-66.3S253,152.1,210.2,194.8S143.9,294.4,143.9,354.9z"/>
<path class="st1" d="M1000.5-245.4H621.6c41.4,2.1,81.7,11.4,119.9,27.5c42.4,18,80.6,43.6,113.3,76.4c5.8,5.8,11.4,11.8,16.7,17.9
	h129V-245.4z"/>
<path class="st1" d="M670-261.6c-38.2-16.2-78.4-25.4-119.9-27.5h-18.9v121.8H800c-5.4-6.1-10.9-12.1-16.7-17.9
	C750.5-217.9,712.4-243.6,670-261.6z"/>
<path class="st1" d="M754.2,0H375.3c-6.3-0.3-12.6-0.5-18.9-0.5C159.6-0.5,0,159.1,0,355.9s159.6,356.4,356.4,356.4
	s356.4-159.6,356.4-356.4c0-89.6-33.1-171.5-87.7-234.1h129.1V0z M357.3,582.5c-125.2,0-226.6-101.5-226.6-226.6
	s101.5-226.6,226.6-226.6S584,230.7,584,355.8S482.5,582.5,357.3,582.5z"/>
</svg>
